<svg id="Capa_1" data-name="Capa 1" xmlns="http://www.w3.org/2000/svg" viewBox="0 0 183.18 183.23"><defs><style>.cls-1{fill:#67bb89;}</style></defs><path class="cls-1" d="M232.77,90.46C232.67,71.18,221.3,59.8,202,59.7q-61-.31-122,0c-18.57.09-30.12,12.11-30.18,30.73-.06,20.34,0,40.68,0,61,0,20,0,39.94,0,59.9,0,20.29,11.16,31.39,31.48,31.41q59.9,0,119.78,0c20.17,0,31.66-11.14,31.75-31.37Q233.05,150.93,232.77,90.46Zm-38.64,26.93c-4.34,0-8,0-11.71,0-9.14.15-11.43,2.38-11.58,11.3-.07,4.12,0,8.24,0,13.3h22.48c-.94,7.49-1.52,14-2.75,20.44-.27,1.41-2.79,3.22-4.41,3.38-4.82.44-9.7.16-15.33.16,0,17.1,0,33.28,0,49.45,0,10.37,1.09,9.14-9.49,9.23-3.38,0-6.79-.19-10.16.06-4,.29-5.24-1.33-5.2-5.22.14-15.43.05-30.86.05-46.3V166c-5.6,0-10.45-.11-15.29.05-3.1.1-4.42-1-4.31-4.22.18-5.26.15-10.54,0-15.81-.08-2.92,1.12-4.06,4-4,4.86.1,9.74,0,15.12,0,.4-7.3.57-14.18,1.19-21,1.44-15.64,11.83-25.26,27.56-25.63,5.08-.12,10.16.18,15.24.16,3.28,0,4.77,1.32,4.67,4.73C194,105.68,194.13,111.1,194.13,117.39Z" transform="translate(-49.74 -59.54)"/></svg>