<svg id="Capa_1" data-name="Capa 1" xmlns="http://www.w3.org/2000/svg" viewBox="0 0 99.19 99.19"><defs><style>.cls-1{fill:#67bb89;}.cls-2{fill:#fff;}</style></defs><circle class="cls-1" cx="49.6" cy="49.6" r="49.6"/><path class="cls-2" d="M83.52,59.16,55.05,33.65H41.77c-1.12,0-1.35.61-.51,1.36l32,28.26-1,1.29L80,70.82l3.45-2.52A6.36,6.36,0,0,0,83.52,59.16Z" transform="translate(-21.14 -15.14)"/><path class="cls-2" d="M39.8,95.81H52.86L67.19,83.17l-7.94-6.76-20,18C38.47,95.21,38.7,95.81,39.8,95.81Z" transform="translate(-21.14 -15.14)"/><path class="cls-2" d="M101,33.65H87.88l-13,12.16,7.78,7L101.53,35C102.31,34.25,102.07,33.65,101,33.65Z" transform="translate(-21.14 -15.14)"/><path class="cls-2" d="M68.56,66.49l.91-1.43L62.1,58.6l-3.66,2.79a6.37,6.37,0,0,0,0,9.09l30,25.33h13.19c1.18,0,1.4-.61.49-1.37Z" transform="translate(-21.14 -15.14)"/></svg>