<svg id="Capa_1" data-name="Capa 1" xmlns="http://www.w3.org/2000/svg" viewBox="0 0 226.79 42.02"><defs><style>.cls-1{fill:#2e2d2c;}.cls-2{fill:#67bb89;}</style></defs><path class="cls-1" d="M19.34,21.91h22a25.63,25.63,0,0,1,7,.86,14.94,14.94,0,0,1,5,2.35,9.58,9.58,0,0,1,2.94,3.56,10.48,10.48,0,0,1,1,4.46A10.34,10.34,0,0,1,54.71,40,10.84,10.84,0,0,1,59,44.37a13,13,0,0,1,1.39,6.09,13.39,13.39,0,0,1-1,5.18,10.16,10.16,0,0,1-2.92,4,13.36,13.36,0,0,1-5,2.52,24.93,24.93,0,0,1-7,.88H19.34ZM44.53,37.69c.71,0,1.42,0,2.1.08a5.15,5.15,0,0,0,1.76-3.84,4,4,0,0,0-1.75-3.46,8.94,8.94,0,0,0-5.12-1.22H27.68v8.44Zm.15,18.06A7.81,7.81,0,0,0,49.8,54.3a5,5,0,0,0,1.75-4.07,5.06,5.06,0,0,0-1.75-4.1,7.76,7.76,0,0,0-5.12-1.48h-17v11.1Z" transform="translate(-19.34 -21.22)"/><path class="cls-1" d="M78.73,21.77h8.46V44.3A14.45,14.45,0,0,0,88,49.23a9.27,9.27,0,0,0,2.31,3.65,9.82,9.82,0,0,0,3.8,2.26,18.23,18.23,0,0,0,10.55,0,9.9,9.9,0,0,0,3.82-2.26,9.36,9.36,0,0,0,2.3-3.65,14.45,14.45,0,0,0,.78-4.93V21.77H120V45.29a18.81,18.81,0,0,1-1.39,7.33,15.61,15.61,0,0,1-4,5.65,18.43,18.43,0,0,1-6.47,3.64,30.48,30.48,0,0,1-17.48,0,18.43,18.43,0,0,1-6.47-3.64,15.61,15.61,0,0,1-4-5.65,18.81,18.81,0,0,1-1.39-7.33Z" transform="translate(-19.34 -21.22)"/><path class="cls-2" d="M170.81,38.62,150,21.73h-9.71c-.83,0-1,.41-.37.9l23.41,18.72-.74.85,5.63,4.14,2.53-1.66A3.94,3.94,0,0,0,170.81,38.62Z" transform="translate(-19.34 -21.22)"/><path class="cls-2" d="M138.84,62.89h9.55l10.48-8.37-5.81-4.47-14.6,12C137.86,62.49,138,62.89,138.84,62.89Z" transform="translate(-19.34 -21.22)"/><path class="cls-2" d="M183.6,21.73H174l-9.54,8.06,5.69,4.63L184,22.62C184.55,22.13,184.38,21.73,183.6,21.73Z" transform="translate(-19.34 -21.22)"/><path class="cls-2" d="M159.87,43.48l.67-.95-5.39-4.27-2.69,1.84a4,4,0,0,0,0,6L174.4,62.89h9.65c.86,0,1-.41.36-.91Z" transform="translate(-19.34 -21.22)"/><path class="cls-1" d="M199.35,42.1a20.65,20.65,0,0,1,1.7-8.48,19.15,19.15,0,0,1,4.77-6.6,21.68,21.68,0,0,1,7.38-4.28,30.64,30.64,0,0,1,19.06,0A21.63,21.63,0,0,1,239.65,27a19.31,19.31,0,0,1,4.78,6.6,20.82,20.82,0,0,1,1.7,8.48,21.11,21.11,0,0,1-1.7,8.54,19.66,19.66,0,0,1-4.78,6.69,21.79,21.79,0,0,1-7.39,4.36,30.07,30.07,0,0,1-19.06,0,21.84,21.84,0,0,1-7.38-4.36,19.5,19.5,0,0,1-4.77-6.69A20.94,20.94,0,0,1,199.35,42.1Zm8.29,0a13.83,13.83,0,0,0,1.14,5.71,12.66,12.66,0,0,0,3.16,4.33,14.53,14.53,0,0,0,4.79,2.76,19.26,19.26,0,0,0,12,0,14.38,14.38,0,0,0,4.78-2.76,12.79,12.79,0,0,0,3.16-4.33,13.67,13.67,0,0,0,1.15-5.71,13.47,13.47,0,0,0-1.15-5.68,12.29,12.29,0,0,0-3.16-4.25,14,14,0,0,0-4.78-2.65,20.06,20.06,0,0,0-12,0,14.13,14.13,0,0,0-4.79,2.65,12.17,12.17,0,0,0-3.16,4.25A13.62,13.62,0,0,0,207.64,42.1Z" transform="translate(-19.34 -21.22)"/></svg>