<svg id="Capa_1" data-name="Capa 1" xmlns="http://www.w3.org/2000/svg" viewBox="0 0 100.16 173.61"><defs><style>.cls-1{fill:#2e2d2c;}.cls-2{fill:#67bb89;}</style></defs><path class="cls-1" d="M21.59,18.93h21.6a25.18,25.18,0,0,1,6.89.84A14.77,14.77,0,0,1,55,22.1a9.39,9.39,0,0,1,2.88,3.52,10.73,10.73,0,0,1-1.49,11.19,10.77,10.77,0,0,1,4.17,4.31,13,13,0,0,1,1.37,6,13.27,13.27,0,0,1-1,5.12,10,10,0,0,1-2.87,3.91,13.28,13.28,0,0,1-4.86,2.5,24.48,24.48,0,0,1-6.92.87H21.59ZM46.34,34.52c.71,0,1.4,0,2.07.08a5.12,5.12,0,0,0,1.73-3.8,3.91,3.91,0,0,0-1.72-3.41,8.67,8.67,0,0,0-5-1.21H29.79v8.34Zm.16,17.85a7.68,7.68,0,0,0,5-1.43,4.92,4.92,0,0,0,1.72-4,5,5,0,0,0-1.72-4.06,7.62,7.62,0,0,0-5-1.45H29.79v11Z" transform="translate(-20.65 -18.93)"/><path class="cls-1" d="M77.7,18.93h8.2V41.2a14.65,14.65,0,0,0,.75,4.87,9.38,9.38,0,0,0,2.23,3.61,9.73,9.73,0,0,0,3.69,2.24,17.59,17.59,0,0,0,10.23,0,9.7,9.7,0,0,0,3.7-2.24,9.4,9.4,0,0,0,2.24-3.61,14.65,14.65,0,0,0,.75-4.87V18.93h8.19V42.18a18.75,18.75,0,0,1-1.34,7.24A15.41,15.41,0,0,1,112.43,55a17.5,17.5,0,0,1-6.27,3.59,28.88,28.88,0,0,1-16.94,0A17.68,17.68,0,0,1,83,55,15.41,15.41,0,0,1,79,49.42a18.94,18.94,0,0,1-1.34-7.24Z" transform="translate(-20.65 -18.93)"/><path class="cls-1" d="M74.57,93.47a20.53,20.53,0,0,1,1.68-8.38A19,19,0,0,1,81,78.56a21.51,21.51,0,0,1,7.29-4.23,30.36,30.36,0,0,1,18.85,0,21.37,21.37,0,0,1,7.3,4.23,19,19,0,0,1,4.72,6.53,20.53,20.53,0,0,1,1.68,8.38,20.87,20.87,0,0,1-1.68,8.45,19.15,19.15,0,0,1-4.72,6.6,21.37,21.37,0,0,1-7.3,4.31,29.61,29.61,0,0,1-18.85,0A21.51,21.51,0,0,1,81,108.52a19.15,19.15,0,0,1-4.72-6.6A20.87,20.87,0,0,1,74.57,93.47Zm8.2,0a13.62,13.62,0,0,0,1.12,5.64A12.51,12.51,0,0,0,87,103.39a14.22,14.22,0,0,0,4.74,2.73,18.83,18.83,0,0,0,11.87,0,14,14,0,0,0,4.72-2.73,12.65,12.65,0,0,0,3.13-4.28,13.47,13.47,0,0,0,1.14-5.64,13.29,13.29,0,0,0-1.14-5.61,12.05,12.05,0,0,0-3.13-4.2A13.66,13.66,0,0,0,103.63,81a20,20,0,0,0-11.87,0A13.85,13.85,0,0,0,87,83.66a11.93,11.93,0,0,0-3.13,4.2A13.45,13.45,0,0,0,82.77,93.47Z" transform="translate(-20.65 -18.93)"/><path class="cls-2" d="M50.06,90,31.53,73.25H22.89c-.73,0-.88.4-.33.89l20.83,18.5-.66.85,5,4.09L50,95.93A4.17,4.17,0,0,0,50.06,90Z" transform="translate(-20.65 -18.93)"/><path class="cls-2" d="M21.61,113.94h8.5l9.32-8.27-5.17-4.43-13,11.82C20.74,113.54,20.89,113.94,21.61,113.94Z" transform="translate(-20.65 -18.93)"/><path class="cls-2" d="M61.44,73.25H52.9l-8.49,8,5.07,4.58,12.3-11.66C62.29,73.65,62.14,73.25,61.44,73.25Z" transform="translate(-20.65 -18.93)"/><path class="cls-2" d="M40.33,94.75l.59-.94-4.8-4.22-2.38,1.82a4.18,4.18,0,0,0,0,6l19.51,16.58h8.58c.77,0,.91-.4.32-.9Z" transform="translate(-20.65 -18.93)"/><path class="cls-1" d="M29.77,140.7H23.36l-1.46,4H20.65L26,130.55h1.14l5.34,14.12H31.23Zm-6.05-1h5.67L26.56,132Z" transform="translate(-20.65 -18.93)"/><path class="cls-1" d="M39.11,135.17a4,4,0,0,0-.79-.07,2.87,2.87,0,0,0-1.84.6,3.39,3.39,0,0,0-1.07,1.76v7.21H34.26V134.18h1.13l0,1.66a3.09,3.09,0,0,1,3-1.86,1.84,1.84,0,0,1,.77.13Z" transform="translate(-20.65 -18.93)"/><path class="cls-1" d="M43.21,131.49v2.69h2.17v.95H43.21v7a2.21,2.21,0,0,0,.31,1.3,1.25,1.25,0,0,0,1.06.43,8.61,8.61,0,0,0,.94-.1l0,.94a3.83,3.83,0,0,1-1.25.16,2.07,2.07,0,0,1-1.73-.69,3.27,3.27,0,0,1-.54-2v-7H40.11v-.95h1.94v-2.69Z" transform="translate(-20.65 -18.93)"/><path class="cls-1" d="M51.83,144.86a4.56,4.56,0,0,1-2.42-.66,4.5,4.5,0,0,1-1.68-1.83,5.77,5.77,0,0,1-.6-2.65v-.41a6.21,6.21,0,0,1,.58-2.73,4.79,4.79,0,0,1,1.64-1.91,4,4,0,0,1,2.27-.69,3.8,3.8,0,0,1,3,1.31,5.26,5.26,0,0,1,1.12,3.56v.65H48.28v.22a4.39,4.39,0,0,0,1,3,3.25,3.25,0,0,0,2.57,1.18,3.7,3.7,0,0,0,1.64-.34,3.53,3.53,0,0,0,1.3-1.08l.73.55A4.24,4.24,0,0,1,51.83,144.86ZM51.62,135a2.9,2.9,0,0,0-2.21,1,4.43,4.43,0,0,0-1.09,2.58h6.29v-.13a3.8,3.8,0,0,0-.86-2.46A2.67,2.67,0,0,0,51.62,135Z" transform="translate(-20.65 -18.93)"/><path class="cls-1" d="M64.29,142a1.64,1.64,0,0,0-.69-1.38,5.22,5.22,0,0,0-2.09-.82,10,10,0,0,1-2.17-.68,2.94,2.94,0,0,1-1.14-.94,2.32,2.32,0,0,1-.37-1.34,2.5,2.5,0,0,1,1-2.05,4.21,4.21,0,0,1,2.66-.81,4.32,4.32,0,0,1,2.82.87,2.77,2.77,0,0,1,1.06,2.26H64.24a1.89,1.89,0,0,0-.77-1.53,3.49,3.49,0,0,0-3.79-.1A1.57,1.57,0,0,0,59,136.8a1.42,1.42,0,0,0,.58,1.22,6,6,0,0,0,2.1.79,10,10,0,0,1,2.29.77,3,3,0,0,1,1.13,1,2.45,2.45,0,0,1,.37,1.38,2.53,2.53,0,0,1-1.07,2.13,4.6,4.6,0,0,1-2.8.79,4.7,4.7,0,0,1-3-.88,2.74,2.74,0,0,1-1.14-2.25h1.16a2,2,0,0,0,.86,1.59,3.49,3.49,0,0,0,2.09.56,3.27,3.27,0,0,0,2-.53A1.58,1.58,0,0,0,64.29,142Z" transform="translate(-20.65 -18.93)"/><path class="cls-1" d="M74.67,144.67a5.69,5.69,0,0,1-.22-1.46,4.09,4.09,0,0,1-1.56,1.22,4.73,4.73,0,0,1-2,.43,3.52,3.52,0,0,1-2.45-.84,2.75,2.75,0,0,1-.94-2.13,2.82,2.82,0,0,1,1.28-2.43,6.15,6.15,0,0,1,3.55-.89h2.11v-1.19a2.28,2.28,0,0,0-.7-1.77,2.85,2.85,0,0,0-2-.65,3.14,3.14,0,0,0-2,.62,1.86,1.86,0,0,0-.8,1.5H67.76a2.68,2.68,0,0,1,1.16-2.17,4.5,4.5,0,0,1,2.86-.92,4.07,4.07,0,0,1,2.77.88,3.13,3.13,0,0,1,1,2.45v5a6.2,6.2,0,0,0,.32,2.28v.12ZM71,143.84a3.9,3.9,0,0,0,2.09-.57,3.27,3.27,0,0,0,1.33-1.5v-2.31H72.36a5.16,5.16,0,0,0-2.71.64,2,2,0,0,0-.33,3.15A2.48,2.48,0,0,0,71,143.84Z" transform="translate(-20.65 -18.93)"/><path class="cls-1" d="M79.77,134.18l0,1.79a4.19,4.19,0,0,1,1.48-1.48,3.77,3.77,0,0,1,1.94-.51,3.17,3.17,0,0,1,2.52,1,4.32,4.32,0,0,1,.83,2.85v6.89H85.43v-6.9a3.23,3.23,0,0,0-.6-2.09A2.34,2.34,0,0,0,83,135a2.92,2.92,0,0,0-1.9.67,4,4,0,0,0-1.23,1.82v7.19H78.67V134.18Z" transform="translate(-20.65 -18.93)"/><path class="cls-1" d="M91.44,129.89h1.41l-2.24,2.71h-1Zm-.6,14.78H89.68V134.18h1.16Z" transform="translate(-20.65 -18.93)"/><path class="cls-1" d="M100.59,144.67a5.22,5.22,0,0,1-.23-1.46,4.06,4.06,0,0,1-1.55,1.22,4.75,4.75,0,0,1-2,.43,3.54,3.54,0,0,1-2.45-.84,2.75,2.75,0,0,1-.93-2.13,2.81,2.81,0,0,1,1.27-2.43,6.18,6.18,0,0,1,3.56-.89h2.1v-1.19a2.3,2.3,0,0,0-.69-1.77,2.87,2.87,0,0,0-2-.65,3.19,3.19,0,0,0-2,.62,1.86,1.86,0,0,0-.8,1.5H93.67a2.7,2.7,0,0,1,1.16-2.17,4.5,4.5,0,0,1,2.86-.92,4.06,4.06,0,0,1,2.77.88,3.13,3.13,0,0,1,1.05,2.45v5a6,6,0,0,0,.32,2.28v.12Zm-3.65-.83a3.87,3.87,0,0,0,2.08-.57,3.27,3.27,0,0,0,1.33-1.5v-2.31H98.28a5.18,5.18,0,0,0-2.72.64,1.91,1.91,0,0,0-1,1.69,1.85,1.85,0,0,0,.66,1.46A2.44,2.44,0,0,0,96.94,143.84Z" transform="translate(-20.65 -18.93)"/><path class="cls-1" d="M21.41,163.16a6.3,6.3,0,0,1,1.09-3.89,3.5,3.5,0,0,1,3-1.45,3.64,3.64,0,0,1,3.24,1.68v-5.89h1.15v14.9H28.77l-.05-1.4a3.75,3.75,0,0,1-3.28,1.59,3.5,3.5,0,0,1-2.92-1.46,6.36,6.36,0,0,1-1.11-3.94Zm1.17.21a5.41,5.41,0,0,0,.81,3.16,2.57,2.57,0,0,0,2.26,1.16,3.13,3.13,0,0,0,3.05-1.89v-4.93a3.1,3.1,0,0,0-3-2A2.61,2.61,0,0,0,23.4,160,5.77,5.77,0,0,0,22.58,163.37Z" transform="translate(-20.65 -18.93)"/><path class="cls-1" d="M32.25,163.1a6.07,6.07,0,0,1,.59-2.72,4.37,4.37,0,0,1,4.08-2.56,4.33,4.33,0,0,1,3.4,1.47,5.65,5.65,0,0,1,1.3,3.89v.24a6.23,6.23,0,0,1-.59,2.74A4.34,4.34,0,0,1,39.38,168a4.53,4.53,0,0,1-2.44.66,4.32,4.32,0,0,1-3.39-1.47,5.65,5.65,0,0,1-1.3-3.89Zm1.16.32a4.75,4.75,0,0,0,1,3.09,3.29,3.29,0,0,0,5.1,0,4.89,4.89,0,0,0,1-3.18v-.23a5.31,5.31,0,0,0-.44-2.2,3.63,3.63,0,0,0-1.25-1.54,3.18,3.18,0,0,0-1.85-.55A3.09,3.09,0,0,0,34.39,160a4.93,4.93,0,0,0-1,3.18Z" transform="translate(-20.65 -18.93)"/><path class="cls-1" d="M52.87,168.7a4.56,4.56,0,0,1-2.42-.66,4.47,4.47,0,0,1-1.68-1.84,5.58,5.58,0,0,1-.61-2.64v-.42a6.17,6.17,0,0,1,.59-2.72,4.65,4.65,0,0,1,1.64-1.91,4,4,0,0,1,2.26-.69,3.8,3.8,0,0,1,3,1.3,5.34,5.34,0,0,1,1.12,3.57v.65H49.32v.22a4.39,4.39,0,0,0,1,3,3.23,3.23,0,0,0,2.58,1.19,3.7,3.7,0,0,0,1.64-.34,3.63,3.63,0,0,0,1.3-1.08l.72.55A4.23,4.23,0,0,1,52.87,168.7Zm-.22-9.89a2.9,2.9,0,0,0-2.2,1,4.43,4.43,0,0,0-1.09,2.58h6.29v-.13a3.83,3.83,0,0,0-.86-2.46A2.69,2.69,0,0,0,52.65,158.81Z" transform="translate(-20.65 -18.93)"/><path class="cls-1" d="M60.15,158l0,1.8a4.19,4.19,0,0,1,1.48-1.48,3.77,3.77,0,0,1,1.94-.51,3.17,3.17,0,0,1,2.52,1,4.29,4.29,0,0,1,.83,2.85v6.89H65.81v-6.9a3.2,3.2,0,0,0-.6-2.09,2.34,2.34,0,0,0-1.88-.69,2.92,2.92,0,0,0-1.9.67,4,4,0,0,0-1.23,1.82v7.19H59.05V158Z" transform="translate(-20.65 -18.93)"/><path class="cls-1" d="M73.82,167.72a3.09,3.09,0,0,0,2-.68,2.43,2.43,0,0,0,.89-1.77h1.11a3.26,3.26,0,0,1-.6,1.75,3.77,3.77,0,0,1-1.47,1.23,4.37,4.37,0,0,1-2,.45,4.09,4.09,0,0,1-3.28-1.43,5.84,5.84,0,0,1-1.2-3.86v-.35a6.62,6.62,0,0,1,.54-2.75,4.16,4.16,0,0,1,1.56-1.84,4.29,4.29,0,0,1,2.37-.65,4,4,0,0,1,2.84,1,3.71,3.71,0,0,1,1.2,2.7H76.74a2.8,2.8,0,0,0-2.93-2.74,2.91,2.91,0,0,0-2.44,1.13,5.14,5.14,0,0,0-.87,3.18v.34a5,5,0,0,0,.87,3.14A2.91,2.91,0,0,0,73.82,167.72Z" transform="translate(-20.65 -18.93)"/><path class="cls-1" d="M86.78,168.51a5.24,5.24,0,0,1-.23-1.47A4,4,0,0,1,85,168.27a4.7,4.7,0,0,1-2,.43,3.54,3.54,0,0,1-2.45-.84,2.93,2.93,0,0,1,.34-4.56,6.11,6.11,0,0,1,3.56-.89h2.1v-1.2a2.3,2.3,0,0,0-.69-1.77,2.87,2.87,0,0,0-2-.64,3.13,3.13,0,0,0-2,.62,1.84,1.84,0,0,0-.8,1.49H79.86A2.7,2.7,0,0,1,81,158.74a4.44,4.44,0,0,1,2.86-.92,4.06,4.06,0,0,1,2.77.88,3.13,3.13,0,0,1,1,2.45v5a6,6,0,0,0,.32,2.28v.12Zm-3.65-.84a3.86,3.86,0,0,0,2.08-.56,3.32,3.32,0,0,0,1.33-1.5V163.3H84.47a5.18,5.18,0,0,0-2.72.63,1.92,1.92,0,0,0-1,1.7,1.88,1.88,0,0,0,.66,1.46A2.44,2.44,0,0,0,83.13,167.67Z" transform="translate(-20.65 -18.93)"/><path class="cls-1" d="M90.7,155a.74.74,0,0,1,.22-.55.75.75,0,0,1,.58-.23.77.77,0,0,1,.58.23.8.8,0,0,1,0,1.1.76.76,0,0,1-.58.22.75.75,0,0,1-.58-.22A.74.74,0,0,1,90.7,155Zm1.37,13.53H90.91V158h1.16Z" transform="translate(-20.65 -18.93)"/><path class="cls-1" d="M98.5,162.27l2.83-4.26h1.38l-3.56,5.15,3.71,5.35H101.5l-3-4.45-3,4.45H94.15l3.71-5.35L94.3,158h1.37Z" transform="translate(-20.65 -18.93)"/><path class="cls-1" d="M108.71,168.7a4.56,4.56,0,0,1-2.42-.66,4.47,4.47,0,0,1-1.68-1.84,5.7,5.7,0,0,1-.6-2.64v-.42a6,6,0,0,1,.59-2.72,4.62,4.62,0,0,1,1.63-1.91,4,4,0,0,1,2.27-.69,3.79,3.79,0,0,1,3,1.3,5.29,5.29,0,0,1,1.12,3.57v.65h-7.49v.22a4.35,4.35,0,0,0,1,3,3.23,3.23,0,0,0,2.57,1.19,3.7,3.7,0,0,0,1.64-.34,3.63,3.63,0,0,0,1.3-1.08l.73.55A4.25,4.25,0,0,1,108.71,168.7Zm-.21-9.89a2.92,2.92,0,0,0-2.21,1,4.43,4.43,0,0,0-1.09,2.58h6.3v-.13a3.84,3.84,0,0,0-.87-2.46A2.67,2.67,0,0,0,108.5,158.81Z" transform="translate(-20.65 -18.93)"/><path class="cls-1" d="M21.41,187a6.33,6.33,0,0,1,1.09-3.9,3.52,3.52,0,0,1,3-1.45,3.64,3.64,0,0,1,3.24,1.68v-5.88h1.15v14.89H28.77L28.72,191a3.75,3.75,0,0,1-3.28,1.59,3.5,3.5,0,0,1-2.92-1.46,6.39,6.39,0,0,1-1.11-4Zm1.17.2a5.45,5.45,0,0,0,.81,3.17,2.59,2.59,0,0,0,2.26,1.16,3.13,3.13,0,0,0,3.05-1.89v-4.93a3.11,3.11,0,0,0-3-2.05,2.64,2.64,0,0,0-2.27,1.15A5.81,5.81,0,0,0,22.58,187.2Z" transform="translate(-20.65 -18.93)"/><path class="cls-1" d="M37,192.54a4.56,4.56,0,0,1-2.42-.66A4.47,4.47,0,0,1,32.85,190a5.76,5.76,0,0,1-.6-2.64V187a6.08,6.08,0,0,1,.59-2.73,4.66,4.66,0,0,1,1.63-1.9,4.07,4.07,0,0,1,2.27-.7,3.8,3.8,0,0,1,3,1.31,5.28,5.28,0,0,1,1.12,3.56v.65H33.4v.23a4.35,4.35,0,0,0,1,3A3.26,3.26,0,0,0,37,191.56a3.92,3.92,0,0,0,1.65-.34,3.73,3.73,0,0,0,1.29-1.09l.73.55A4.23,4.23,0,0,1,37,192.54Zm-.21-9.9a2.92,2.92,0,0,0-2.21,1,4.49,4.49,0,0,0-1.09,2.58h6.3v-.12a3.89,3.89,0,0,0-.87-2.47A2.67,2.67,0,0,0,36.74,182.64Z" transform="translate(-20.65 -18.93)"/><path class="cls-1" d="M56.39,187.2a6.29,6.29,0,0,1-1.09,3.9,3.46,3.46,0,0,1-2.92,1.44,3.78,3.78,0,0,1-3.31-1.63l0,1.43H47.93V177.45h1.16v5.92a3.65,3.65,0,0,1,3.27-1.72,3.5,3.5,0,0,1,3,1.43A6.37,6.37,0,0,1,56.39,187Zm-1.16-.2a5.48,5.48,0,0,0-.81-3.21,2.63,2.63,0,0,0-2.27-1.13,3.24,3.24,0,0,0-1.89.55,3.29,3.29,0,0,0-1.17,1.61v4.73a3.11,3.11,0,0,0,3.08,2,2.61,2.61,0,0,0,2.25-1.14A5.83,5.83,0,0,0,55.23,187Z" transform="translate(-20.65 -18.93)"/><path class="cls-1" d="M58.29,186.94a6.21,6.21,0,0,1,.59-2.73A4.44,4.44,0,0,1,63,181.65a4.32,4.32,0,0,1,3.39,1.47,5.66,5.66,0,0,1,1.3,3.9v.24a6.23,6.23,0,0,1-.59,2.74,4.39,4.39,0,0,1-1.65,1.88,4.53,4.53,0,0,1-2.44.66,4.29,4.29,0,0,1-3.38-1.47,5.66,5.66,0,0,1-1.31-3.9Zm1.16.32a4.78,4.78,0,0,0,1,3.09,3.29,3.29,0,0,0,5.1,0,4.94,4.94,0,0,0,1-3.19v-.22a5.28,5.28,0,0,0-.45-2.2,3.59,3.59,0,0,0-1.25-1.55,3.24,3.24,0,0,0-1.84-.55,3.13,3.13,0,0,0-2.54,1.22,4.94,4.94,0,0,0-1,3.19Z" transform="translate(-20.65 -18.93)"/><path class="cls-1" d="M71.33,192.34H70.17V177.45h1.16Z" transform="translate(-20.65 -18.93)"/><path class="cls-1" d="M74.4,178.82a.79.79,0,0,1,.21-.56.89.89,0,0,1,1.17,0,.76.76,0,0,1,.22.56.74.74,0,0,1-.22.55.81.81,0,0,1-.59.22.82.82,0,0,1-.58-.22A.77.77,0,0,1,74.4,178.82Zm1.37,13.52H74.6V181.85h1.17Z" transform="translate(-20.65 -18.93)"/><path class="cls-1" d="M80.2,192.34H79V177.45H80.2Z" transform="translate(-20.65 -18.93)"/><path class="cls-1" d="M84.63,192.34H83.47V177.45h1.16Z" transform="translate(-20.65 -18.93)"/><path class="cls-1" d="M87.12,186.94a6.21,6.21,0,0,1,.59-2.73,4.44,4.44,0,0,1,4.09-2.56,4.29,4.29,0,0,1,3.39,1.47,5.66,5.66,0,0,1,1.3,3.9v.24a6.22,6.22,0,0,1-.58,2.74,4.41,4.41,0,0,1-1.66,1.88,4.52,4.52,0,0,1-2.43.66,4.32,4.32,0,0,1-3.39-1.47,5.66,5.66,0,0,1-1.31-3.9Zm1.17.32a4.78,4.78,0,0,0,1,3.09,3.16,3.16,0,0,0,2.56,1.21,3.1,3.1,0,0,0,2.54-1.21,4.94,4.94,0,0,0,1-3.19v-.22a5.28,5.28,0,0,0-.45-2.2,3.52,3.52,0,0,0-1.25-1.55,3.22,3.22,0,0,0-1.84-.55,3.11,3.11,0,0,0-2.53,1.22,4.88,4.88,0,0,0-1,3.19Z" transform="translate(-20.65 -18.93)"/><path class="cls-1" d="M105.15,189.68a1.66,1.66,0,0,0-.69-1.39,5.37,5.37,0,0,0-2.09-.82,9.47,9.47,0,0,1-2.17-.68,2.86,2.86,0,0,1-1.14-.94,2.29,2.29,0,0,1-.37-1.33,2.51,2.51,0,0,1,1-2.06,4.21,4.21,0,0,1,2.66-.81,4.32,4.32,0,0,1,2.82.87,2.79,2.79,0,0,1,1.06,2.27H105.1a1.9,1.9,0,0,0-.77-1.54,3.11,3.11,0,0,0-2-.61,3.06,3.06,0,0,0-1.84.51,1.58,1.58,0,0,0-.69,1.33,1.4,1.4,0,0,0,.58,1.21,5.8,5.8,0,0,0,2.1.79,10,10,0,0,1,2.29.77,3,3,0,0,1,1.13,1,2.46,2.46,0,0,1,.37,1.39,2.52,2.52,0,0,1-1.07,2.12,4.6,4.6,0,0,1-2.8.8,4.71,4.71,0,0,1-3-.89,2.73,2.73,0,0,1-1.14-2.25H99.5a2,2,0,0,0,.86,1.59,3.5,3.5,0,0,0,2.09.57,3.27,3.27,0,0,0,2-.54A1.57,1.57,0,0,0,105.15,189.68Z" transform="translate(-20.65 -18.93)"/></svg>