<svg id="Capa_1" data-name="Capa 1" xmlns="http://www.w3.org/2000/svg" viewBox="0 0 226.79 42.02"><defs><style>.cls-1{fill:#2e2d2c;}</style></defs><path class="cls-1" d="M11.84,15.91h22a25.63,25.63,0,0,1,7,.86,14.94,14.94,0,0,1,5,2.35,9.58,9.58,0,0,1,2.94,3.56,10.48,10.48,0,0,1,1,4.46A10.34,10.34,0,0,1,47.21,34a10.84,10.84,0,0,1,4.24,4.37,13,13,0,0,1,1.39,6.09,13.39,13.39,0,0,1-1,5.18,10.16,10.16,0,0,1-2.92,4,13.36,13.36,0,0,1-5,2.52A24.93,24.93,0,0,1,37,57H11.84ZM37,31.69c.71,0,1.42,0,2.1.08a5.15,5.15,0,0,0,1.76-3.84,4,4,0,0,0-1.75-3.46A8.94,8.94,0,0,0,34,23.25H20.18v8.44Zm.15,18.06A7.81,7.81,0,0,0,42.3,48.3a5,5,0,0,0,1.75-4.07,5.06,5.06,0,0,0-1.75-4.1,7.76,7.76,0,0,0-5.12-1.48h-17v11.1Z" transform="translate(-11.84 -15.22)"/><path class="cls-1" d="M71.23,15.77h8.46V38.3a14.45,14.45,0,0,0,.78,4.93,9.27,9.27,0,0,0,2.31,3.65,9.82,9.82,0,0,0,3.8,2.26,18.23,18.23,0,0,0,10.55,0A9.9,9.9,0,0,0,101,46.88a9.36,9.36,0,0,0,2.3-3.65A14.45,14.45,0,0,0,104,38.3V15.77h8.46V39.29a18.81,18.81,0,0,1-1.39,7.33,15.61,15.61,0,0,1-4,5.65,18.43,18.43,0,0,1-6.47,3.64,30.48,30.48,0,0,1-17.48,0,18.43,18.43,0,0,1-6.47-3.64,15.61,15.61,0,0,1-4-5.65,18.81,18.81,0,0,1-1.39-7.33Z" transform="translate(-11.84 -15.22)"/><path class="cls-1" d="M163.31,32.62,142.49,15.73h-9.71c-.83,0-1,.41-.37.9l23.41,18.72-.74.85,5.63,4.14,2.53-1.66A3.94,3.94,0,0,0,163.31,32.62Z" transform="translate(-11.84 -15.22)"/><path class="cls-1" d="M131.34,56.89h9.55l10.48-8.37-5.81-4.47L131,56C130.36,56.49,130.53,56.89,131.34,56.89Z" transform="translate(-11.84 -15.22)"/><path class="cls-1" d="M176.1,15.73h-9.6L157,23.79l5.69,4.63,13.83-11.8C177.05,16.13,176.88,15.73,176.1,15.73Z" transform="translate(-11.84 -15.22)"/><path class="cls-1" d="M152.37,37.48l.67-.95-5.39-4.27L145,34.1a4,4,0,0,0,0,6L166.9,56.89h9.65c.86,0,1-.41.36-.91Z" transform="translate(-11.84 -15.22)"/><path class="cls-1" d="M191.85,36.1a20.65,20.65,0,0,1,1.7-8.48,19.15,19.15,0,0,1,4.77-6.6,21.68,21.68,0,0,1,7.38-4.28,30.64,30.64,0,0,1,19.06,0A21.63,21.63,0,0,1,232.15,21a19.31,19.31,0,0,1,4.78,6.6,20.82,20.82,0,0,1,1.7,8.48,21.11,21.11,0,0,1-1.7,8.54,19.66,19.66,0,0,1-4.78,6.69,21.79,21.79,0,0,1-7.39,4.36,30.07,30.07,0,0,1-19.06,0,21.84,21.84,0,0,1-7.38-4.36,19.5,19.5,0,0,1-4.77-6.69A20.94,20.94,0,0,1,191.85,36.1Zm8.29,0a13.83,13.83,0,0,0,1.14,5.71,12.66,12.66,0,0,0,3.16,4.33,14.53,14.53,0,0,0,4.79,2.76,19.26,19.26,0,0,0,12,0A14.38,14.38,0,0,0,226,46.14a12.79,12.79,0,0,0,3.16-4.33,13.67,13.67,0,0,0,1.15-5.71,13.47,13.47,0,0,0-1.15-5.68A12.29,12.29,0,0,0,226,26.17a14,14,0,0,0-4.78-2.65,20.06,20.06,0,0,0-12,0,14.13,14.13,0,0,0-4.79,2.65,12.17,12.17,0,0,0-3.16,4.25A13.62,13.62,0,0,0,200.14,36.1Z" transform="translate(-11.84 -15.22)"/></svg>