<svg id="Capa_1" data-name="Capa 1" xmlns="http://www.w3.org/2000/svg" viewBox="0 0 226.79 67.35"><defs><style>.cls-1,.cls-3{fill:#2e2d2c;}.cls-2{fill:#67bb89;}.cls-3{font-size:16.08px;font-family:Roboto-Light, Roboto;font-weight:300;letter-spacing:0em;}.cls-4{letter-spacing:0.02em;}.cls-5{letter-spacing:-0.01em;}.cls-6{letter-spacing:0em;}</style></defs><path class="cls-1" d="M21.16,13.62h22a25.6,25.6,0,0,1,7,.86,14.85,14.85,0,0,1,5,2.35,9.49,9.49,0,0,1,2.94,3.56,10.48,10.48,0,0,1,1,4.46,10.34,10.34,0,0,1-2.48,6.86,10.84,10.84,0,0,1,4.24,4.37,13,13,0,0,1,1.4,6.09,13.39,13.39,0,0,1-1,5.18,10.18,10.18,0,0,1-2.93,4,13.31,13.31,0,0,1-4.94,2.52,25,25,0,0,1-7,.88H21.16ZM46.35,29.4c.72,0,1.42,0,2.1.08a5.16,5.16,0,0,0,1.77-3.84,4,4,0,0,0-1.75-3.46A9,9,0,0,0,43.35,21H29.5V29.4Zm.16,18.06A7.85,7.85,0,0,0,51.63,46a5,5,0,0,0,1.75-4.07,5.09,5.09,0,0,0-1.75-4.1,7.8,7.8,0,0,0-5.12-1.48h-17v11.1Z" transform="translate(-21.16 -12.93)"/><path class="cls-1" d="M80.56,13.48H89V36a14.46,14.46,0,0,0,.77,4.93,9.38,9.38,0,0,0,2.31,3.65,9.82,9.82,0,0,0,3.8,2.26,18.23,18.23,0,0,0,10.55,0,9.83,9.83,0,0,0,3.82-2.26,9.5,9.5,0,0,0,2.31-3.65,14.7,14.7,0,0,0,.77-4.93V13.48h8.46V37a18.63,18.63,0,0,1-1.39,7.33,15.49,15.49,0,0,1-4,5.65,18.43,18.43,0,0,1-6.47,3.64,30.48,30.48,0,0,1-17.48,0A18.51,18.51,0,0,1,86,50a15.47,15.47,0,0,1-4-5.65A18.63,18.63,0,0,1,80.56,37Z" transform="translate(-21.16 -12.93)"/><path class="cls-2" d="M172.64,30.33,151.81,13.44H142.1c-.82,0-1,.41-.37.9l23.41,18.72-.74.85L170,38.05l2.52-1.66A4,4,0,0,0,172.64,30.33Z" transform="translate(-21.16 -12.93)"/><path class="cls-2" d="M140.66,54.6h9.55l10.48-8.37-5.81-4.47-14.6,12C139.68,54.2,139.85,54.6,140.66,54.6Z" transform="translate(-21.16 -12.93)"/><path class="cls-2" d="M185.42,13.44h-9.6l-9.54,8,5.7,4.64,13.82-11.8C186.38,13.84,186.2,13.44,185.42,13.44Z" transform="translate(-21.16 -12.93)"/><path class="cls-2" d="M161.7,35.19l.66-.95L157,30l-2.68,1.84a3.94,3.94,0,0,0,0,6L176.23,54.6h9.64c.86,0,1-.41.36-.91Z" transform="translate(-21.16 -12.93)"/><path class="cls-1" d="M201.17,33.81a20.82,20.82,0,0,1,1.7-8.48,19.28,19.28,0,0,1,4.77-6.6A21.68,21.68,0,0,1,215,14.45a30.64,30.64,0,0,1,19.06,0,21.68,21.68,0,0,1,7.4,4.28,19.28,19.28,0,0,1,4.77,6.6,20.82,20.82,0,0,1,1.7,8.48,21.11,21.11,0,0,1-1.7,8.54A19.63,19.63,0,0,1,241.48,49a21.84,21.84,0,0,1-7.4,4.36,30.07,30.07,0,0,1-19.06,0A21.84,21.84,0,0,1,207.64,49a19.63,19.63,0,0,1-4.77-6.69A21.11,21.11,0,0,1,201.17,33.81Zm8.29,0a13.83,13.83,0,0,0,1.14,5.71,12.68,12.68,0,0,0,3.17,4.33,14.42,14.42,0,0,0,4.79,2.76,19.23,19.23,0,0,0,12,0,14.18,14.18,0,0,0,4.78-2.76,13,13,0,0,0,3.17-4.33,13.83,13.83,0,0,0,1.15-5.71,13.62,13.62,0,0,0-1.15-5.68,12.44,12.44,0,0,0-3.17-4.25,13.8,13.8,0,0,0-4.78-2.65,20,20,0,0,0-12,0,14,14,0,0,0-4.79,2.65,12.19,12.19,0,0,0-3.17,4.25A13.62,13.62,0,0,0,209.46,33.81Z" transform="translate(-21.16 -12.93)"/><text class="cls-3" transform="translate(0.49 62.99)">A<tspan class="cls-4" x="10.02" y="0">r</tspan><tspan x="15.81" y="0">tesanía do encai</tspan><tspan class="cls-5" x="130.17" y="0">x</tspan><tspan class="cls-6" x="137.82" y="0">e de bolillos</tspan></text></svg>