<svg id="Capa_1" data-name="Capa 1" xmlns="http://www.w3.org/2000/svg" viewBox="0 0 226.79 102.82"><defs><style>.cls-1{fill:#67bb89;}.cls-2{fill:#fff;}</style></defs><rect class="cls-1" width="226.79" height="102.82"/><path class="cls-2" d="M47,42.07H63.54a19.4,19.4,0,0,1,5.3.65,11.3,11.3,0,0,1,3.74,1.77,7.37,7.37,0,0,1,2.22,2.69,7.93,7.93,0,0,1,.72,3.37,7.78,7.78,0,0,1-1.87,5.18A8.15,8.15,0,0,1,76.85,59a9.76,9.76,0,0,1,1.06,4.61,10.2,10.2,0,0,1-.73,3.91,7.68,7.68,0,0,1-2.2,3,10.23,10.23,0,0,1-3.74,1.91,19,19,0,0,1-5.32.66H47ZM66,54q.83,0,1.59.06a3.9,3.9,0,0,0,1.33-2.9,3,3,0,0,0-1.32-2.61,6.77,6.77,0,0,0-3.86-.92H53.25V54Zm.12,13.64A6,6,0,0,0,70,66.53a3.78,3.78,0,0,0,1.32-3.08A3.84,3.84,0,0,0,70,60.35a5.88,5.88,0,0,0-3.87-1.11H53.25v8.38Z" transform="translate(-19.18 -14.2)"/><path class="cls-2" d="M91.79,42h6.39V59a11,11,0,0,0,.58,3.73,7.19,7.19,0,0,0,1.74,2.75,7.62,7.62,0,0,0,2.87,1.71,14,14,0,0,0,8,0,7.51,7.51,0,0,0,2.88-1.71A7.19,7.19,0,0,0,116,62.7a11,11,0,0,0,.59-3.73V42h6.38V59.72a14.23,14.23,0,0,1-1,5.53,11.84,11.84,0,0,1-3,4.27A13.85,13.85,0,0,1,114,72.27a23.17,23.17,0,0,1-13.2,0,13.89,13.89,0,0,1-4.88-2.75,11.72,11.72,0,0,1-3-4.27,14,14,0,0,1-1-5.53Z" transform="translate(-19.18 -14.2)"/><path class="cls-2" d="M161.31,54.69,145.59,41.94h-7.34c-.62,0-.74.3-.28.68l17.68,14.12-.56.65,4.25,3.13,1.91-1.26A3,3,0,0,0,161.31,54.69Z" transform="translate(-19.18 -14.2)"/><path class="cls-2" d="M137.17,73h7.21l7.91-6.32-4.39-3.38-11,9C136.43,72.71,136.56,73,137.17,73Z" transform="translate(-19.18 -14.2)"/><path class="cls-2" d="M171,41.94h-7.25L156.51,48l4.3,3.49,10.44-8.9C171.68,42.24,171.55,41.94,171,41.94Z" transform="translate(-19.18 -14.2)"/><path class="cls-2" d="M153.05,58.35l.5-.71-4.07-3.23-2,1.39a3,3,0,0,0,0,4.55L164,73h7.28c.65,0,.77-.31.27-.69Z" transform="translate(-19.18 -14.2)"/><path class="cls-2" d="M182.85,57.31a15.77,15.77,0,0,1,1.28-6.4,14.57,14.57,0,0,1,3.61-5,16.2,16.2,0,0,1,5.57-3.23,23.08,23.08,0,0,1,14.39,0,16.34,16.34,0,0,1,5.58,3.23,14.54,14.54,0,0,1,3.6,5,15.61,15.61,0,0,1,1.29,6.4,15.81,15.81,0,0,1-1.29,6.45,14.72,14.72,0,0,1-3.6,5.05,16.46,16.46,0,0,1-5.58,3.29,22.71,22.71,0,0,1-14.39,0,16.32,16.32,0,0,1-5.57-3.29,14.74,14.74,0,0,1-3.61-5.05A16,16,0,0,1,182.85,57.31Zm6.26,0a10.46,10.46,0,0,0,.86,4.31,9.42,9.42,0,0,0,2.39,3.27A10.65,10.65,0,0,0,196,67,14.45,14.45,0,0,0,205,67a10.65,10.65,0,0,0,3.61-2.08A9.68,9.68,0,0,0,211,61.62a10.3,10.3,0,0,0,.86-4.31A10.13,10.13,0,0,0,211,53a9.25,9.25,0,0,0-2.39-3.21,10.5,10.5,0,0,0-3.61-2,15.25,15.25,0,0,0-9.07,0,10.5,10.5,0,0,0-3.61,2A9,9,0,0,0,190,53,10.29,10.29,0,0,0,189.11,57.31Z" transform="translate(-19.18 -14.2)"/><path class="cls-2" d="M53.07,86.68H49.15l-.89,2.43H47.5l3.26-8.63h.69l3.27,8.63H54Zm-3.7-.61h3.47l-1.74-4.7Z" transform="translate(-19.18 -14.2)"/><path class="cls-2" d="M58.77,83.3a2.45,2.45,0,0,0-.48,0,1.72,1.72,0,0,0-1.12.37,2.07,2.07,0,0,0-.66,1.07v4.41h-.7V82.7h.69v1a1.9,1.9,0,0,1,1.81-1.13,1.19,1.19,0,0,1,.47.07Z" transform="translate(-19.18 -14.2)"/><path class="cls-2" d="M61.28,81.05V82.7h1.33v.58H61.28v4.27a1.35,1.35,0,0,0,.19.8.75.75,0,0,0,.64.26,4.48,4.48,0,0,0,.58-.06l0,.58a2.54,2.54,0,0,1-.76.1,1.27,1.27,0,0,1-1.06-.43,2,2,0,0,1-.33-1.25V83.28H59.39V82.7h1.18V81.05Z" transform="translate(-19.18 -14.2)"/><path class="cls-2" d="M66.55,89.23A2.78,2.78,0,0,1,64,87.7a3.56,3.56,0,0,1-.37-1.61v-.26A3.71,3.71,0,0,1,64,84.17,2.8,2.8,0,0,1,65,83a2.49,2.49,0,0,1,1.39-.42,2.33,2.33,0,0,1,1.85.79A3.29,3.29,0,0,1,69,85.55V86H64.38v.14A2.7,2.7,0,0,0,65,87.9a2,2,0,0,0,1.58.73,2.26,2.26,0,0,0,1-.21,2.31,2.31,0,0,0,.79-.66l.45.33A2.58,2.58,0,0,1,66.55,89.23Zm-.13-6a1.77,1.77,0,0,0-1.35.59,2.7,2.7,0,0,0-.67,1.57h3.85v-.07a2.38,2.38,0,0,0-.53-1.51A1.66,1.66,0,0,0,66.42,83.18Z" transform="translate(-19.18 -14.2)"/><path class="cls-2" d="M74.16,87.48a1,1,0,0,0-.42-.85,3.31,3.31,0,0,0-1.28-.5,5.94,5.94,0,0,1-1.32-.41,1.72,1.72,0,0,1-.7-.58,1.41,1.41,0,0,1-.23-.81,1.54,1.54,0,0,1,.63-1.26,3,3,0,0,1,3.35,0,1.7,1.7,0,0,1,.65,1.38h-.71a1.16,1.16,0,0,0-.48-.94,1.89,1.89,0,0,0-1.18-.37,1.94,1.94,0,0,0-1.13.31,1,1,0,0,0-.42.81.87.87,0,0,0,.35.74,3.79,3.79,0,0,0,1.29.49A5.63,5.63,0,0,1,74,86a1.77,1.77,0,0,1,.69.59,1.67,1.67,0,0,1-.43,2.15,3.26,3.26,0,0,1-3.53-.06A1.67,1.67,0,0,1,70,87.31h.71a1.21,1.21,0,0,0,.52,1,2.16,2.16,0,0,0,1.28.35,2,2,0,0,0,1.2-.33A1,1,0,0,0,74.16,87.48Z" transform="translate(-19.18 -14.2)"/><path class="cls-2" d="M80.5,89.11a3.46,3.46,0,0,1-.13-.9,2.37,2.37,0,0,1-1,.75,2.82,2.82,0,0,1-1.22.27,2.19,2.19,0,0,1-1.5-.52,1.68,1.68,0,0,1-.57-1.3,1.7,1.7,0,0,1,.78-1.48,3.71,3.71,0,0,1,2.17-.55h1.29v-.73a1.4,1.4,0,0,0-.42-1.08,1.79,1.79,0,0,0-1.24-.39,2,2,0,0,0-1.23.37,1.15,1.15,0,0,0-.48.92h-.71A1.62,1.62,0,0,1,77,83.14a2.68,2.68,0,0,1,1.75-.56,2.53,2.53,0,0,1,1.69.53,2,2,0,0,1,.64,1.5v3a3.84,3.84,0,0,0,.19,1.4v.07Zm-2.23-.51a2.35,2.35,0,0,0,1.27-.35,2,2,0,0,0,.82-.91V85.93H79.09a3.11,3.11,0,0,0-1.66.38,1.17,1.17,0,0,0-.6,1,1.15,1.15,0,0,0,.4.89A1.51,1.51,0,0,0,78.27,88.6Z" transform="translate(-19.18 -14.2)"/><path class="cls-2" d="M83.62,82.7l0,1.09a2.58,2.58,0,0,1,.9-.9,2.32,2.32,0,0,1,1.19-.31,1.93,1.93,0,0,1,1.54.58,2.58,2.58,0,0,1,.51,1.74v4.21h-.71V84.89a1.94,1.94,0,0,0-.36-1.28,1.43,1.43,0,0,0-1.15-.42,1.76,1.76,0,0,0-1.16.42,2.34,2.34,0,0,0-.75,1.11v4.39h-.71V82.7Z" transform="translate(-19.18 -14.2)"/><path class="cls-2" d="M90.75,80.08h.86l-1.37,1.66h-.62Zm-.37,9h-.71V82.7h.71Z" transform="translate(-19.18 -14.2)"/><path class="cls-2" d="M96.34,89.11a3,3,0,0,1-.14-.9,2.41,2.41,0,0,1-1,.75,2.87,2.87,0,0,1-1.23.27,2.16,2.16,0,0,1-1.49-.52,1.68,1.68,0,0,1-.57-1.3,1.7,1.7,0,0,1,.78-1.48,3.69,3.69,0,0,1,2.17-.55h1.28v-.73a1.4,1.4,0,0,0-.42-1.08,1.76,1.76,0,0,0-1.24-.39,1.93,1.93,0,0,0-1.22.37,1.13,1.13,0,0,0-.49.92h-.71a1.65,1.65,0,0,1,.71-1.32,2.72,2.72,0,0,1,1.75-.56,2.53,2.53,0,0,1,1.69.53,1.94,1.94,0,0,1,.64,1.5v3a3.84,3.84,0,0,0,.19,1.4v.07Zm-2.23-.51a2.38,2.38,0,0,0,1.27-.35,2,2,0,0,0,.81-.91V85.93H94.93a3.11,3.11,0,0,0-1.66.38,1.17,1.17,0,0,0-.6,1,1.12,1.12,0,0,0,.4.89A1.48,1.48,0,0,0,94.11,88.6Z" transform="translate(-19.18 -14.2)"/><path class="cls-2" d="M101.43,85.84a3.84,3.84,0,0,1,.67-2.38,2.14,2.14,0,0,1,1.81-.88,2.25,2.25,0,0,1,2,1V80h.7v9.11h-.66l0-.86a2.28,2.28,0,0,1-2,1,2.13,2.13,0,0,1-1.79-.9,3.87,3.87,0,0,1-.68-2.4Zm.72.13a3.32,3.32,0,0,0,.49,1.93,1.6,1.6,0,0,0,1.39.71,1.92,1.92,0,0,0,1.86-1.16v-3A1.91,1.91,0,0,0,104,83.19a1.6,1.6,0,0,0-1.39.71A3.47,3.47,0,0,0,102.15,86Z" transform="translate(-19.18 -14.2)"/><path class="cls-2" d="M108.06,85.81a3.93,3.93,0,0,1,.35-1.67,2.72,2.72,0,0,1,1-1.15,2.88,2.88,0,0,1,3.56.48,3.47,3.47,0,0,1,.79,2.38V86a3.83,3.83,0,0,1-.36,1.68,2.67,2.67,0,0,1-1,1.14,2.75,2.75,0,0,1-1.49.41,2.65,2.65,0,0,1-2.07-.9,3.46,3.46,0,0,1-.79-2.38Zm.71.19a2.94,2.94,0,0,0,.59,1.89,2,2,0,0,0,3.12,0,3,3,0,0,0,.6-2v-.13a3.33,3.33,0,0,0-.28-1.35,2.11,2.11,0,0,0-.76-.94,1.91,1.91,0,0,0-1.13-.34,1.87,1.87,0,0,0-1.54.75,3,3,0,0,0-.6,1.94Z" transform="translate(-19.18 -14.2)"/><path class="cls-2" d="M120.65,89.23a2.76,2.76,0,0,1-1.47-.41,2.72,2.72,0,0,1-1-1.12,3.44,3.44,0,0,1-.37-1.61v-.26a3.71,3.71,0,0,1,.36-1.66,2.8,2.8,0,0,1,1-1.17,2.46,2.46,0,0,1,1.38-.42,2.33,2.33,0,0,1,1.86.79,3.29,3.29,0,0,1,.68,2.18V86h-4.57v.14a2.65,2.65,0,0,0,.62,1.81,2,2,0,0,0,1.57.73,2.12,2.12,0,0,0,1.8-.87l.44.33A2.57,2.57,0,0,1,120.65,89.23Zm-.13-6a1.76,1.76,0,0,0-1.34.59,2.7,2.7,0,0,0-.67,1.57h3.85v-.07a2.38,2.38,0,0,0-.53-1.51A1.66,1.66,0,0,0,120.52,83.18Z" transform="translate(-19.18 -14.2)"/><path class="cls-2" d="M125.1,82.7l0,1.09a2.58,2.58,0,0,1,.9-.9,2.32,2.32,0,0,1,1.19-.31,1.89,1.89,0,0,1,1.53.58,2.58,2.58,0,0,1,.51,1.74v4.21h-.7V84.89a2.06,2.06,0,0,0-.36-1.28,1.45,1.45,0,0,0-1.15-.42,1.79,1.79,0,0,0-1.17.42,2.49,2.49,0,0,0-.75,1.11v4.39h-.7V82.7Z" transform="translate(-19.18 -14.2)"/><path class="cls-2" d="M133.45,88.63a1.89,1.89,0,0,0,1.25-.42,1.49,1.49,0,0,0,.54-1.08h.68a2,2,0,0,1-.37,1.07,2.22,2.22,0,0,1-.9.75,2.58,2.58,0,0,1-1.2.28,2.51,2.51,0,0,1-2-.88,3.56,3.56,0,0,1-.73-2.36v-.21a4.06,4.06,0,0,1,.33-1.68A2.58,2.58,0,0,1,132,83a2.64,2.64,0,0,1,1.45-.39,2.48,2.48,0,0,1,1.74.63,2.27,2.27,0,0,1,.73,1.65h-.68a1.75,1.75,0,0,0-.54-1.22,1.8,1.8,0,0,0-1.25-.46,1.77,1.77,0,0,0-1.49.69,3.14,3.14,0,0,0-.53,1.95V86a3,3,0,0,0,.53,1.91A1.77,1.77,0,0,0,133.45,88.63Z" transform="translate(-19.18 -14.2)"/><path class="cls-2" d="M141.37,89.11a3.38,3.38,0,0,1-.14-.9,2.28,2.28,0,0,1-.95.75,2.82,2.82,0,0,1-1.22.27,2.17,2.17,0,0,1-1.5-.52,1.68,1.68,0,0,1-.57-1.3,1.7,1.7,0,0,1,.78-1.48,3.69,3.69,0,0,1,2.17-.55h1.29v-.73a1.37,1.37,0,0,0-.43-1.08,1.75,1.75,0,0,0-1.23-.39,2,2,0,0,0-1.23.37,1.15,1.15,0,0,0-.48.92h-.72a1.63,1.63,0,0,1,.72-1.32,2.67,2.67,0,0,1,1.74-.56,2.56,2.56,0,0,1,1.7.53,1.93,1.93,0,0,1,.63,1.5v3a3.81,3.81,0,0,0,.2,1.4v.07Zm-2.23-.51a2.35,2.35,0,0,0,1.27-.35,2,2,0,0,0,.82-.91V85.93H140a3.11,3.11,0,0,0-1.66.38,1.17,1.17,0,0,0-.6,1,1.15,1.15,0,0,0,.4.89A1.51,1.51,0,0,0,139.14,88.6Z" transform="translate(-19.18 -14.2)"/><path class="cls-2" d="M143.77,80.84a.45.45,0,0,1,.49-.47.45.45,0,0,1,.35.13.49.49,0,0,1,.14.34.46.46,0,0,1-.14.34.45.45,0,0,1-.35.14.49.49,0,0,1-.36-.14A.45.45,0,0,1,143.77,80.84Zm.84,8.27h-.72V82.7h.72Z" transform="translate(-19.18 -14.2)"/><path class="cls-2" d="M148.53,85.3l1.73-2.6h.85l-2.18,3.14,2.27,3.27h-.83l-1.83-2.72-1.82,2.72h-.84l2.26-3.27L146,82.7h.83Z" transform="translate(-19.18 -14.2)"/><path class="cls-2" d="M154.77,89.23a2.76,2.76,0,0,1-1.47-.41,2.66,2.66,0,0,1-1-1.12,3.44,3.44,0,0,1-.37-1.61v-.26a3.71,3.71,0,0,1,.36-1.66,2.8,2.8,0,0,1,1-1.17,2.46,2.46,0,0,1,1.38-.42,2.33,2.33,0,0,1,1.86.79,3.29,3.29,0,0,1,.68,2.18V86h-4.57v.14a2.65,2.65,0,0,0,.62,1.81,2,2,0,0,0,1.57.73,2.12,2.12,0,0,0,1.8-.87l.44.33A2.57,2.57,0,0,1,154.77,89.23Zm-.13-6a1.76,1.76,0,0,0-1.34.59,2.7,2.7,0,0,0-.67,1.57h3.84v-.07a2.37,2.37,0,0,0-.52-1.51A1.66,1.66,0,0,0,154.64,83.18Z" transform="translate(-19.18 -14.2)"/><path class="cls-2" d="M161.2,85.84a3.91,3.91,0,0,1,.67-2.38,2.14,2.14,0,0,1,1.81-.88,2.22,2.22,0,0,1,2,1V80h.71v9.11h-.67l0-.86a2.28,2.28,0,0,1-2,1,2.13,2.13,0,0,1-1.79-.9,3.87,3.87,0,0,1-.68-2.4Zm.72.13a3.32,3.32,0,0,0,.49,1.93,1.6,1.6,0,0,0,1.39.71,1.92,1.92,0,0,0,1.86-1.16v-3a1.9,1.9,0,0,0-1.85-1.25,1.6,1.6,0,0,0-1.39.71A3.55,3.55,0,0,0,161.92,86Z" transform="translate(-19.18 -14.2)"/><path class="cls-2" d="M170.7,89.23a2.79,2.79,0,0,1-1.48-.41,2.7,2.7,0,0,1-1-1.12,3.44,3.44,0,0,1-.37-1.61v-.26a3.71,3.71,0,0,1,.36-1.66,2.8,2.8,0,0,1,1-1.17,2.44,2.44,0,0,1,1.38-.42,2.3,2.3,0,0,1,1.85.79,3.24,3.24,0,0,1,.69,2.18V86h-4.58v.14a2.66,2.66,0,0,0,.63,1.81,2,2,0,0,0,1.57.73,2.12,2.12,0,0,0,1.8-.87l.44.33A2.58,2.58,0,0,1,170.7,89.23Zm-.13-6a1.8,1.8,0,0,0-1.35.59,2.75,2.75,0,0,0-.66,1.57h3.84v-.07a2.37,2.37,0,0,0-.52-1.51A1.68,1.68,0,0,0,170.57,83.18Z" transform="translate(-19.18 -14.2)"/><path class="cls-2" d="M182.58,86a3.82,3.82,0,0,1-.67,2.38,2.12,2.12,0,0,1-1.78.88,2.33,2.33,0,0,1-2-1l0,.88h-.66V80h.71v3.63a2.22,2.22,0,0,1,2-1,2.14,2.14,0,0,1,1.8.87,3.88,3.88,0,0,1,.66,2.41Zm-.71-.13a3.34,3.34,0,0,0-.5-2,1.59,1.59,0,0,0-1.38-.69,1.92,1.92,0,0,0-1.16.34,2,2,0,0,0-.71,1V87.4A1.89,1.89,0,0,0,180,88.61a1.6,1.6,0,0,0,1.37-.69A3.61,3.61,0,0,0,181.87,85.84Z" transform="translate(-19.18 -14.2)"/><path class="cls-2" d="M183.74,85.81a3.79,3.79,0,0,1,.36-1.67,2.68,2.68,0,0,1,2.5-1.56,2.66,2.66,0,0,1,2.07.89,3.47,3.47,0,0,1,.79,2.38V86a3.83,3.83,0,0,1-.36,1.68,2.61,2.61,0,0,1-1,1.14,2.74,2.74,0,0,1-1.48.41,2.63,2.63,0,0,1-2.07-.9,3.41,3.41,0,0,1-.8-2.38Zm.71.19a2.89,2.89,0,0,0,.6,1.89,2,2,0,0,0,3.11,0,3,3,0,0,0,.6-2v-.13a3.32,3.32,0,0,0-.27-1.35,2.19,2.19,0,0,0-.77-.94,2,2,0,0,0-2.67.41,3,3,0,0,0-.6,1.94Z" transform="translate(-19.18 -14.2)"/><path class="cls-2" d="M191.71,89.11H191V80h.71Z" transform="translate(-19.18 -14.2)"/><path class="cls-2" d="M193.58,80.84a.51.51,0,0,1,.85-.34.53.53,0,0,1,.13.34.5.5,0,0,1-.85.34A.45.45,0,0,1,193.58,80.84Zm.84,8.27h-.71V82.7h.71Z" transform="translate(-19.18 -14.2)"/><path class="cls-2" d="M197.12,89.11h-.71V80h.71Z" transform="translate(-19.18 -14.2)"/><path class="cls-2" d="M199.83,89.11h-.71V80h.71Z" transform="translate(-19.18 -14.2)"/><path class="cls-2" d="M201.36,85.81a3.78,3.78,0,0,1,.35-1.67,2.72,2.72,0,0,1,1-1.15,2.88,2.88,0,0,1,3.56.48,3.52,3.52,0,0,1,.79,2.38V86a3.83,3.83,0,0,1-.36,1.68,2.67,2.67,0,0,1-1,1.14,2.75,2.75,0,0,1-1.49.41,2.63,2.63,0,0,1-2.07-.9,3.46,3.46,0,0,1-.79-2.38Zm.71.19a2.89,2.89,0,0,0,.59,1.89,2,2,0,0,0,3.12,0,3,3,0,0,0,.59-2v-.13a3.32,3.32,0,0,0-.27-1.35,2.11,2.11,0,0,0-.76-.94,1.93,1.93,0,0,0-1.13-.34,1.9,1.9,0,0,0-1.55.75,3,3,0,0,0-.59,1.94Z" transform="translate(-19.18 -14.2)"/><path class="cls-2" d="M212.37,87.48a1,1,0,0,0-.42-.85,3.31,3.31,0,0,0-1.28-.5,5.94,5.94,0,0,1-1.32-.41,1.72,1.72,0,0,1-.7-.58,1.34,1.34,0,0,1-.23-.81,1.54,1.54,0,0,1,.63-1.26,3,3,0,0,1,3.35,0,1.7,1.7,0,0,1,.65,1.38h-.71a1.16,1.16,0,0,0-.48-.94,1.89,1.89,0,0,0-1.18-.37,1.94,1.94,0,0,0-1.13.31,1,1,0,0,0-.42.81.87.87,0,0,0,.35.74,3.79,3.79,0,0,0,1.29.49,5.63,5.63,0,0,1,1.4.47,1.77,1.77,0,0,1,.69.59,1.67,1.67,0,0,1-.43,2.15,3.26,3.26,0,0,1-3.53-.06,1.67,1.67,0,0,1-.69-1.37h.71a1.21,1.21,0,0,0,.52,1,2.16,2.16,0,0,0,1.28.35,2,2,0,0,0,1.2-.33A1,1,0,0,0,212.37,87.48Z" transform="translate(-19.18 -14.2)"/></svg>