<svg id="Capa_1" data-name="Capa 1" xmlns="http://www.w3.org/2000/svg" viewBox="0 0 99.86 95.44"><defs><style>.cls-1{fill:#2e2d2c;}.cls-2{fill:#67bb89;}</style></defs><path class="cls-1" d="M21.44,17H43a24.82,24.82,0,0,1,6.89.85,14.42,14.42,0,0,1,4.87,2.32,9.32,9.32,0,0,1,2.89,3.52A10.73,10.73,0,0,1,56.2,34.89a10.84,10.84,0,0,1,4.17,4.31,13,13,0,0,1,1.37,6,13.27,13.27,0,0,1-1,5.12,10,10,0,0,1-2.87,3.91,13.13,13.13,0,0,1-4.86,2.5,24.53,24.53,0,0,1-6.92.87H21.44ZM46.19,32.6c.71,0,1.4,0,2.07.08A5.1,5.1,0,0,0,50,28.89a3.94,3.94,0,0,0-1.72-3.42,8.67,8.67,0,0,0-5-1.21H29.64V32.6Zm.16,17.86a7.73,7.73,0,0,0,5-1.43,5,5,0,0,0,1.72-4,5,5,0,0,0-1.72-4,7.62,7.62,0,0,0-5-1.46H29.64v11Z" transform="translate(-20.8 -17.01)"/><path class="cls-1" d="M77.55,17h8.2V39.28a14.71,14.71,0,0,0,.75,4.88,9.34,9.34,0,0,0,2.23,3.6A9.61,9.61,0,0,0,92.42,50a17.59,17.59,0,0,0,10.23,0,9.58,9.58,0,0,0,3.7-2.24,9.34,9.34,0,0,0,2.23-3.6,14.71,14.71,0,0,0,.75-4.88V17h8.2V40.26a18.71,18.71,0,0,1-1.34,7.24,15.33,15.33,0,0,1-3.91,5.59,17.67,17.67,0,0,1-6.27,3.6,29.1,29.1,0,0,1-16.94,0,17.76,17.76,0,0,1-6.27-3.6,15.33,15.33,0,0,1-3.91-5.59,18.9,18.9,0,0,1-1.34-7.24Z" transform="translate(-20.8 -17.01)"/><path class="cls-1" d="M74.42,91.56a20.46,20.46,0,0,1,1.68-8.38,18.92,18.92,0,0,1,4.72-6.54,21.66,21.66,0,0,1,7.29-4.22,30.36,30.36,0,0,1,18.85,0,21.51,21.51,0,0,1,7.3,4.22A18.92,18.92,0,0,1,119,83.18a20.46,20.46,0,0,1,1.68,8.38A20.85,20.85,0,0,1,119,100a19.29,19.29,0,0,1-4.72,6.61,21.51,21.51,0,0,1-7.3,4.3,29.61,29.61,0,0,1-18.85,0,21.66,21.66,0,0,1-7.29-4.3A19.29,19.29,0,0,1,76.1,100,20.85,20.85,0,0,1,74.42,91.56Zm8.2,0a13.61,13.61,0,0,0,1.12,5.63,12.42,12.42,0,0,0,3.13,4.28,13.94,13.94,0,0,0,4.73,2.73,18.86,18.86,0,0,0,11.88,0,13.71,13.71,0,0,0,4.72-2.73,12.68,12.68,0,0,0,3.13-4.28,14.57,14.57,0,0,0,0-11.25,12.37,12.37,0,0,0-3.13-4.2,13.83,13.83,0,0,0-4.72-2.63,20.05,20.05,0,0,0-11.88,0,14.07,14.07,0,0,0-4.73,2.63,12.12,12.12,0,0,0-3.13,4.2A13.49,13.49,0,0,0,82.62,91.56Z" transform="translate(-20.8 -17.01)"/><path class="cls-2" d="M49.91,88,31.38,71.34H22.74c-.73,0-.88.4-.33.89l20.83,18.5-.66.84,5,4.09L49.85,94A4.17,4.17,0,0,0,49.91,88Z" transform="translate(-20.8 -17.01)"/><path class="cls-2" d="M21.46,112H30l9.32-8.27-5.17-4.42-13,11.81C20.59,111.63,20.74,112,21.46,112Z" transform="translate(-20.8 -17.01)"/><path class="cls-2" d="M61.29,71.34H52.75l-8.49,8,5.07,4.58,12.3-11.66C62.14,71.73,62,71.34,61.29,71.34Z" transform="translate(-20.8 -17.01)"/><path class="cls-2" d="M40.18,92.83l.59-.93L36,87.67l-2.39,1.82a4.19,4.19,0,0,0,0,6L53.11,112h8.58c.77,0,.91-.4.32-.89Z" transform="translate(-20.8 -17.01)"/></svg>